<?xml version="1.0" encoding="iso-8859-1"?>
<!-- Generator: Adobe Illustrator 19.0.0, SVG Export Plug-In . SVG Version: 6.00 Build 0)  -->
<svg version="1.1" id="Layer_1" xmlns="http://www.w3.org/2000/svg" xmlns:xlink="http://www.w3.org/1999/xlink" x="0px" y="0px"
	 viewBox="0 0 512 512" style="enable-background:new 0 0 512 512;" xml:space="preserve">
<path style="fill:#FFDB2D;" d="M437.02,74.98C388.667,26.629,324.38,0,256,0S123.333,26.629,74.98,74.98
	C26.629,123.333,0,187.62,0,256s26.629,132.667,74.98,181.02C123.333,485.371,187.62,512,256,512s132.667-26.629,181.02-74.98
	C485.371,388.667,512,324.38,512,256S485.371,123.333,437.02,74.98z"/>
<g>
	<path style="fill:#D6B826;" d="M256,512c68.38,0,132.667-26.629,181.02-74.98C485.371,388.667,512,324.38,512,256
		s-26.629-132.667-74.98-181.02C388.667,26.629,324.38,0,256,0"/>
	<path style="fill:#D6B826;" d="M394.796,117.204C357.722,80.13,308.43,59.713,256,59.713S154.278,80.13,117.204,117.204
		C80.131,154.278,59.713,203.57,59.713,256s20.418,101.722,57.491,138.796C154.278,431.87,203.57,452.287,256,452.287
		s101.722-20.417,138.796-57.491c37.073-37.074,57.491-86.366,57.491-138.796C452.287,203.57,431.869,154.278,394.796,117.204z"/>
</g>
<path style="fill:#BAA021;" d="M256,452.287c52.43,0,101.722-20.417,138.796-57.491c37.073-37.074,57.491-86.366,57.491-138.796
	s-20.418-101.722-57.491-138.796C357.722,80.13,308.43,59.713,256,59.713"/>
<path style="fill:#FFDB2D;" d="M256,133.667c-59.221,0-107.4,48.179-107.4,107.4l0.001,72.8h5c21.945,0,39.8,17.854,39.8,39.8v11.4
	H318.6v-11.4c0-21.946,17.854-39.8,39.801-39.8h5v-72.8C363.4,181.846,315.221,133.667,256,133.667z"/>
<path style="fill:#D6B826;" d="M256,133.667v231.4h62.6v-11.4c0-21.946,17.854-39.8,39.801-39.8h5v-72.8
	C363.4,181.846,315.221,133.667,256,133.667z"/>
<g>
	<path style="fill:#BAA021;" d="M205.867,218.767c-18.638,0-33.801,15.163-33.801,33.8s15.163,33.8,33.801,33.8
		s33.8-15.163,33.8-33.8C239.667,233.929,224.505,218.767,205.867,218.767z"/>
	<path style="fill:#BAA021;" d="M306.133,218.767c-18.638,0-33.8,15.163-33.8,33.8s15.162,33.8,33.8,33.8s33.801-15.163,33.801-33.8
		C339.934,233.929,324.771,218.767,306.133,218.767z"/>
	<rect x="241" y="300.67" style="fill:#BAA021;" width="30" height="30"/>
</g>
<g>
</g>
<g>
</g>
<g>
</g>
<g>
</g>
<g>
</g>
<g>
</g>
<g>
</g>
<g>
</g>
<g>
</g>
<g>
</g>
<g>
</g>
<g>
</g>
<g>
</g>
<g>
</g>
<g>
</g>
</svg>
