<?xml version="1.0" encoding="iso-8859-1"?>
<!-- Generator: Adobe Illustrator 19.0.0, SVG Export Plug-In . SVG Version: 6.00 Build 0)  -->
<svg version="1.1" id="Layer_1" xmlns="http://www.w3.org/2000/svg" xmlns:xlink="http://www.w3.org/1999/xlink" x="0px" y="0px"
	 viewBox="0 0 512 512" style="enable-background:new 0 0 512 512;" xml:space="preserve">
<rect x="198.33" style="fill:#382A1B;" width="115.33" height="64"/>
<circle style="fill:#614933;" cx="256" cy="280.5" r="216.5"/>
<path style="fill:#382A1B;" d="M256,64c119.569,0,216.5,96.931,216.5,216.5C472.5,400.07,375.569,497,256,497"/>
<path style="fill:#D6B826;" d="M256,512c-61.836,0-119.971-24.08-163.695-67.805C48.58,400.471,24.5,342.336,24.5,280.5
	s24.08-119.971,67.805-163.695C136.029,73.08,194.164,49,256,49s119.971,24.08,163.695,67.805
	C463.42,160.529,487.5,218.664,487.5,280.5s-24.08,119.971-67.805,163.695S317.836,512,256,512z M256,79
	C144.892,79,54.5,169.393,54.5,280.5S144.892,482,256,482c111.107,0,201.5-90.393,201.5-201.5S367.107,79,256,79z"/>
<g>
	
		<rect x="168.796" y="212.418" transform="matrix(-0.7071 -0.7071 0.7071 -0.7071 185.591 531.7091)" style="fill:#FF4F19;" width="68.239" height="30"/>
	
		<rect x="187.92" y="299.457" transform="matrix(-0.7071 -0.7071 0.7071 -0.7071 110.532 712.9381)" style="fill:#FF4F19;" width="30" height="68.239"/>
</g>
<g>
	
		<rect x="274.966" y="318.575" transform="matrix(-0.7071 -0.7071 0.7071 -0.7071 291.7699 788.0048)" style="fill:#D43504;" width="68.239" height="30"/>
	
		<rect x="294.082" y="193.299" transform="matrix(-0.7071 -0.7071 0.7071 -0.7071 366.826 606.7825)" style="fill:#D43504;" width="30" height="68.239"/>
</g>
<path style="fill:#BAA021;" d="M419.695,116.805C375.976,73.086,317.85,49.006,256.022,49v30
	C367.119,79.013,457.5,169.4,457.5,280.5c0,111.101-90.381,201.488-201.478,201.5v30c61.827-0.006,119.953-24.085,163.673-67.805
	C463.42,400.471,487.5,342.336,487.5,280.5S463.42,160.529,419.695,116.805z"/>
<path style="fill:#FFFFFF;" d="M420.063,269.864l-122.742-30.686l-30.686-122.742h-21.272l-30.686,122.742l-122.74,30.686v21.272
	l122.742,30.685l30.686,122.743h21.272l30.686-122.743l122.742-30.685v-21.272H420.063z"/>
<g>
	<polygon style="fill:#B7E4F8;" points="255.833,444.564 245.363,444.564 214.678,321.822 91.937,291.138 91.937,280.501 
		255.833,280.501 	"/>
	<polygon style="fill:#B7E4F8;" points="420.063,280.333 420.063,269.864 297.321,239.179 266.636,116.437 255.999,116.437 
		255.999,280.333 	"/>
</g>
<g>
</g>
<g>
</g>
<g>
</g>
<g>
</g>
<g>
</g>
<g>
</g>
<g>
</g>
<g>
</g>
<g>
</g>
<g>
</g>
<g>
</g>
<g>
</g>
<g>
</g>
<g>
</g>
<g>
</g>
</svg>
