<?xml version="1.0" encoding="iso-8859-1"?>
<!-- Generator: Adobe Illustrator 19.0.0, SVG Export Plug-In . SVG Version: 6.00 Build 0)  -->
<svg version="1.1" id="Layer_1" xmlns="http://www.w3.org/2000/svg" xmlns:xlink="http://www.w3.org/1999/xlink" x="0px" y="0px"
	 viewBox="0 0 512.008 512.008" style="enable-background:new 0 0 512.008 512.008;" xml:space="preserve">
<rect x="314.497" y="368.273" transform="matrix(0.7071 0.7071 -0.7071 0.7071 412.0591 -154.5941)" style="fill:#8A6848;" width="156.288" height="103.659"/>
<rect x="348.247" y="359.908" transform="matrix(-0.7071 0.7071 -0.7071 -0.7071 949.3561 482.8686)" style="fill:#614933;" width="52.851" height="156.288"/>
<path style="fill:#B7E4F8;" d="M87.353,10.598L97.95,0l95.684,95.684l0.89,4.449c4.373,21.864,14.218,42.476,28.475,59.619
	l167.763,194.093l-64.396,64.397L88.118,211.148l-0.765-0.714c-26.689-26.689-41.388-62.174-41.388-99.918
	S60.664,37.287,87.353,10.598z"/>
<path style="fill:#93D6F4;" d="M359.051,385.556l-32.686,32.687L88.118,211.148l-0.765-0.714
	c-26.689-26.689-41.388-62.174-41.388-99.918c0-11.596,1.393-22.977,4.089-33.957L359.051,385.556z"/>
<path style="fill:#6FC8F1;" d="M275.196,301.7c-13.856,12.064-27.877,23.93-42.309,35.287l93.479,81.255l32.686-32.687
	L275.196,301.7z"/>
<polygon style="fill:#D6B826;" points="288.623,467.692 318.016,461.813 312.146,432.462 416.353,328.254 407.337,283.172 
	377.944,289.05 383.814,318.402 279.606,422.609 "/>
<rect x="41.222" y="368.263" transform="matrix(-0.7071 0.7071 -0.7071 -0.7071 500.8215 632.7382)" style="fill:#8A6848;" width="156.288" height="103.659"/>
<rect x="110.91" y="359.917" transform="matrix(0.7071 0.7071 -0.7071 0.7071 349.9807 31.1938)" style="fill:#614933;" width="52.851" height="156.288"/>
<path style="fill:#B7E4F8;" d="M424.663,10.598L414.066,0l-95.684,95.684l-0.89,4.449c-4.373,21.864-14.218,42.476-28.475,59.619
	L121.255,353.845l64.396,64.397l238.247-207.094l0.766-0.714c26.689-26.689,41.388-62.174,41.388-99.918
	C466.051,72.772,451.352,37.287,424.663,10.598z"/>
<path style="fill:#93D6F4;" d="M152.965,385.556l32.686,32.687l238.247-207.095l0.766-0.714
	c26.689-26.689,41.388-62.174,41.388-99.918c0-11.596-1.394-22.977-4.09-33.957L152.965,385.556z"/>
<polygon style="fill:#FFDB2D;" points="223.393,467.692 194,461.813 199.87,432.462 95.663,328.254 104.68,283.172 134.073,289.05 
	128.203,318.402 232.41,422.609 "/>
<g>
</g>
<g>
</g>
<g>
</g>
<g>
</g>
<g>
</g>
<g>
</g>
<g>
</g>
<g>
</g>
<g>
</g>
<g>
</g>
<g>
</g>
<g>
</g>
<g>
</g>
<g>
</g>
<g>
</g>
</svg>
